control3min_grf.mot
version=1
nRows=10
nColumns 19
inDegrees=yes
endheader
time	1_ground_force_vx	1_ground_force_vy	1_ground_force_vz	1_ground_force_px	1_ground_force_py	1_ground_force_pz	1_ground_torque_x	1_ground_torque_y	1_ground_torque_z	2_ground_force_vx	2_ground_force_vy	2_ground_force_vz	2_ground_force_px	2_ground_force_py	2_ground_force_pz	2_ground_torque_x	2_ground_torque_y	2_ground_torque_z
            1.253500	            1.286977	           12.068414	            2.295542	           -0.215295	            0.005974	           -0.346540	           -0.017661	           -0.165615	           -0.031502	           -0.168587	            7.734726	           -0.253912	           -0.232311	            0.006130	           -0.833667	           -1.765726	            0.011185	            0.377823
            1.254000	            0.643399	           13.693237	            1.707965	           -0.209649	            0.006037	           -0.360845	            0.001549	            0.032956	            0.004111	            0.613945	           11.604382	           -0.146597	           -0.189521	            0.005511	           -0.616758	            0.017058	            0.322423	           -0.004073
            1.254500	           -0.275042	           15.497880	            1.213555	           -0.200334	            0.006123	           -0.380664	           -0.005143	            0.289784	            0.022691	            2.287873	           15.109625	           -0.228686	           -0.205716	            0.005467	           -0.621055	            0.035118	            0.231926	           -0.003510
            1.255000	           -0.597982	           18.564890	            0.631365	           -0.187387	            0.006160	           -0.388609	           -0.004505	            0.139874	            0.004757	            3.919499	           17.326497	           -0.549995	           -0.209233	            0.005483	           -0.628871	            0.013347	            0.059003	           -0.001873
            1.255500	            0.408430	           27.759421	            0.484860	           -0.181901	            0.006207	           -0.399419	           -0.002654	           -0.180400	           -0.003151	            4.140977	           20.827332	           -0.866108	           -0.216347	            0.005447	           -0.626180	           -0.039749	           -0.199921	            0.008314
            1.256000	            2.423121	           47.767137	            1.070067	           -0.179558	            0.006280	           -0.416392	           -0.022762	           -0.448705	           -0.010052	            2.815826	           24.506065	           -0.993193	           -0.212820	            0.005511	           -0.640486	           -0.038668	           -0.336527	            0.013639
            1.256500	            3.433831	           62.720929	            3.103524	           -0.192575	            0.006281	           -0.417186	           -0.036509	           -0.666855	           -0.032997	            0.103102	           23.207884	           -1.184349	           -0.209287	            0.005514	           -0.637843	           -0.001174	           -0.264328	            0.013489
            1.257000	            2.482574	           56.754085	            7.253294	           -0.232111	            0.006221	           -0.404890	           -0.022178	           -0.507010	           -0.064797	           -3.253536	           18.592499	           -1.340125	           -0.210955	            0.005490	           -0.632648	            0.000688	           -0.003932	            0.000283
            1.257500	            0.057278	           53.322080	            8.757883	           -0.242217	            0.006187	           -0.397371	            0.000522	            0.485593	            0.079756	           -5.219820	           18.216428	           -1.152890	           -0.198164	            0.005544	           -0.634799	           -0.075868	            0.264769	           -0.016757
            1.258000	           -4.403961	           66.501455	            3.964619	           -0.186505	            0.006334	           -0.429128	           -0.108209	            1.633990	            0.097414	           -5.887106	           21.524043	            0.173203	           -0.175471	            0.005657	           -0.643555	           -0.150882	            0.551645	            0.004439
